<?xml version="1.0" standalone="no"?>
<!DOCTYPE svg PUBLIC "-//W3C//DTD SVG 20010904//EN"
 "http://www.w3.org/TR/2001/REC-SVG-20010904/DTD/svg10.dtd">
<svg version="1.0" xmlns="http://www.w3.org/2000/svg"
 width="1024.000000pt" height="1024.000000pt" viewBox="0 0 1024.000000 1024.000000"
 preserveAspectRatio="xMidYMid meet">
<metadata>
Created by potrace 1.14, written by Peter Selinger 2001-2017
</metadata>
<g transform="translate(0.000000,1024.000000) scale(0.100000,-0.100000)"
fill="#000000" stroke="none">
<path d="M4950 10221 c-79 -22 -170 -60 -170 -72 0 -5 -7 -9 -15 -9 -32 0
-124 -97 -267 -280 -66 -85 -127 -164 -136 -175 -10 -11 -71 -92 -137 -180
-66 -88 -122 -162 -125 -165 -3 -3 -43 -57 -89 -120 -46 -63 -87 -117 -90
-120 -3 -3 -20 -25 -36 -50 -16 -25 -32 -47 -35 -50 -3 -3 -17 -21 -30 -40
-14 -19 -28 -39 -32 -45 -4 -5 -26 -35 -48 -65 -22 -30 -47 -64 -55 -75 -9
-11 -28 -39 -42 -62 -14 -24 -29 -43 -34 -43 -5 0 -9 -6 -9 -14 0 -8 -3 -16
-8 -18 -6 -3 -68 -89 -97 -137 -5 -9 -16 -20 -22 -24 -7 -4 -13 -13 -13 -18 0
-9 -43 -72 -60 -89 -15 -15 -50 -71 -50 -80 0 -5 -4 -10 -10 -10 -5 0 -10 -6
-10 -14 0 -8 -7 -16 -15 -20 -8 -3 -15 -10 -15 -15 0 -6 -18 -36 -40 -68 -54
-78 -48 -68 -159 -238 -55 -82 -108 -161 -118 -175 -10 -14 -57 -86 -103 -160
-46 -74 -88 -136 -92 -138 -4 -2 -8 -8 -8 -13 0 -6 -18 -37 -40 -70 -22 -33
-40 -62 -40 -64 0 -2 -27 -45 -60 -96 -33 -52 -63 -101 -67 -109 -5 -13 -27
-50 -80 -136 -6 -10 -35 -59 -64 -109 -29 -49 -57 -93 -63 -97 -6 -4 -8 -8 -4
-8 4 0 -20 -45 -53 -100 -32 -55 -59 -102 -59 -104 0 -3 -25 -47 -55 -100 -30
-52 -55 -99 -55 -103 0 -5 -11 -24 -24 -43 -13 -19 -27 -46 -31 -60 -4 -14
-11 -27 -15 -30 -6 -4 -236 -465 -279 -560 -9 -19 -18 -37 -21 -40 -3 -3 -6
-9 -7 -15 -2 -9 -98 -235 -124 -290 -5 -11 -20 -51 -35 -90 -14 -38 -28 -74
-32 -80 -4 -5 -7 -14 -9 -20 -2 -12 -67 -193 -77 -217 -4 -9 -9 -22 -10 -30
-3 -13 -5 -20 -22 -63 -4 -11 -6 -23 -6 -27 1 -4 -5 -25 -13 -45 -8 -21 -28
-92 -46 -158 -36 -137 -33 -125 -44 -190 -10 -57 -12 -63 -15 -70 -1 -3 -3
-13 -5 -22 -1 -10 -4 -34 -8 -53 -25 -133 -31 -223 -32 -435 0 -180 8 -335 19
-405 3 -14 7 -45 10 -70 3 -25 13 -85 21 -135 9 -49 17 -102 20 -116 2 -14 11
-53 19 -86 9 -32 17 -68 19 -79 2 -10 9 -39 16 -64 7 -25 14 -52 16 -60 4 -23
45 -152 55 -175 5 -11 12 -31 15 -45 4 -14 13 -38 20 -55 7 -16 30 -73 51
-125 20 -52 60 -142 86 -200 27 -58 49 -107 48 -109 -1 -2 2 -7 7 -10 6 -3 25
-35 44 -71 19 -36 51 -92 71 -125 21 -33 45 -75 54 -92 9 -18 20 -33 25 -33 5
0 9 -7 9 -15 0 -8 5 -15 10 -15 6 0 10 -6 10 -13 0 -7 13 -28 30 -47 16 -19
29 -40 30 -47 0 -6 3 -13 7 -15 5 -1 35 -39 68 -83 33 -44 64 -85 70 -91 5 -6
28 -32 50 -59 148 -177 423 -443 559 -540 16 -11 33 -25 40 -30 32 -30 241
-177 298 -210 10 -5 65 -38 122 -72 86 -50 273 -145 381 -193 84 -38 139 -60
149 -60 6 0 24 -7 39 -15 23 -12 227 -81 262 -89 6 -2 28 -8 50 -14 22 -6 42
-11 45 -11 3 0 18 -4 33 -10 15 -6 42 -13 60 -16 18 -3 48 -10 67 -15 19 -5
51 -12 70 -15 19 -3 58 -10 85 -15 54 -11 105 -18 175 -26 25 -2 56 -7 70 -9
134 -26 733 -26 869 0 9 1 45 6 81 11 36 4 67 8 70 9 3 1 30 5 60 10 58 9 69
11 73 14 1 1 17 4 36 7 18 2 59 11 90 19 31 7 67 16 81 19 83 17 323 91 430
133 8 4 17 7 20 8 3 1 23 9 44 18 22 10 50 20 63 23 13 4 23 11 23 17 0 6 3 8
6 4 4 -3 33 7 65 24 33 16 59 26 59 22 0 -5 4 -3 8 2 4 6 43 28 87 50 132 65
449 256 480 289 6 6 35 28 66 48 30 21 69 50 86 65 18 16 44 37 58 47 14 11
34 27 44 35 10 9 44 39 76 66 191 166 411 411 577 640 63 88 188 281 188 291
0 3 14 25 30 50 17 24 27 44 23 44 -4 0 -3 4 3 8 10 7 164 314 164 329 1 4 9
26 20 48 11 22 19 48 20 58 0 9 4 17 8 17 4 0 14 21 21 48 8 26 18 54 22 62 4
8 24 69 44 135 20 66 40 135 46 153 6 18 12 42 15 55 2 12 6 33 9 47 4 14 8
36 11 49 3 14 7 27 9 31 2 4 7 29 11 56 3 27 8 51 9 54 2 3 6 24 9 46 4 22 8
49 10 60 4 22 16 107 22 159 25 225 25 642 1 750 -3 12 -9 48 -13 80 -8 63
-10 73 -14 78 -1 1 -3 11 -4 22 -2 11 -6 34 -10 50 -3 17 -8 39 -11 50 -25
118 -107 397 -151 515 -13 36 -24 68 -24 71 0 4 -8 24 -17 45 -9 22 -18 44
-19 49 -1 6 -6 21 -12 35 -5 14 -11 30 -12 35 -1 6 -7 19 -13 30 -6 11 -12 25
-13 30 -1 6 -11 32 -23 57 -11 26 -21 49 -21 51 0 3 -12 31 -27 63 -15 33 -27
61 -28 64 -4 13 -25 61 -49 110 -14 29 -26 59 -26 66 0 6 -7 17 -15 24 -9 7
-13 15 -11 17 7 8 -300 614 -381 753 -15 25 -25 46 -22 46 2 1 -3 10 -11 20
-9 11 -26 39 -40 64 -13 25 -28 54 -34 65 -6 11 -14 22 -17 25 -3 3 -14 21
-24 40 -10 19 -38 68 -62 109 -25 41 -54 90 -65 110 -12 20 -28 48 -37 63 -9
14 -34 57 -57 95 -23 37 -63 104 -91 148 -27 44 -56 91 -64 104 -8 14 -22 34
-31 45 -10 11 -18 23 -18 27 0 8 -139 228 -150 239 -3 3 -11 17 -19 32 -8 15
-22 37 -33 47 -10 11 -18 23 -18 26 0 3 -27 46 -60 95 -33 49 -60 94 -60 99 0
5 -4 11 -8 13 -5 2 -51 66 -102 143 -52 77 -97 142 -100 145 -3 3 -9 13 -15
22 -14 25 -83 124 -130 188 -22 30 -42 60 -45 65 -6 13 -189 268 -445 620 -32
43 -89 119 -98 130 -4 6 -26 35 -48 65 -21 30 -48 66 -59 80 -11 14 -37 48
-57 75 -20 28 -39 52 -42 55 -11 10 -66 85 -64 87 2 2 -7 13 -20 26 -12 13
-47 56 -77 96 -30 40 -60 78 -65 85 -6 6 -24 29 -40 51 -38 50 -57 74 -73 91
-7 8 -11 14 -9 14 11 0 -94 98 -134 125 -24 17 -45 33 -47 38 -2 4 -9 7 -15 7
-7 1 -30 9 -52 20 -22 11 -47 19 -56 20 -9 0 -19 3 -23 7 -10 10 -44 14 -176
18 -87 2 -131 -1 -180 -14z"/>
</g>
</svg>
